Coordinates
version=1
nRows=9
nColumns=63
inDegrees=yes

Units are S.I. units (second, meters, Newtons, ...)
If the header above contains a line with 'inDegrees', this indicates whether rotational values are in degrees (yes) or radians (no).

endheader
time	pelvis_tilt	pelvis_list	pelvis_rotation	pelvis_tx	pelvis_ty	pelvis_tz	hip_flexion_r	hip_adduction_r	hip_rotation_r	knee_angle_r	knee_angle_r_beta	ankle_angle_r	subtalar_angle_r	mtp_angle_r	hip_flexion_l	hip_adduction_l	hip_rotation_l	knee_angle_l	knee_angle_l_beta	ankle_angle_l	subtalar_angle_l	mtp_angle_l	L5_S1_Flex_Ext	L5_S1_Lat_Bending	L5_S1_axial_rotation	L4_L5_Flex_Ext	L4_L5_Lat_Bending	L4_L5_axial_rotation	L3_L4_Flex_Ext	L3_L4_Lat_Bending	L3_L4_axial_rotation	L2_L3_Flex_Ext	L2_L3_Lat_Bending	L2_L3_axial_rotation	L1_L2_Flex_Ext	L1_L2_Lat_Bending	L1_L2_axial_rotation	L1_T12_Flex_Ext	L1_T12_Lat_Bending	L1_T12_axial_rotation	Abs_r3	Abs_r2	Abs_r1	Abs_t1	Abs_t2	neck_flexion	neck_bending	neck_rotation	arm_flex_r	arm_add_r	arm_rot_r	elbow_flex_r	pro_sup_r	wrist_flex_r	wrist_dev_r	arm_flex_l	arm_add_l	arm_rot_l	elbow_flex_l	pro_sup_l	wrist_flex_l	wrist_dev_l
      0.83050847	      2.94457799	     -2.97414104	     97.71100277	      0.16316750	      1.02631827	      0.06636061	     -3.62447635	      4.53679910	     -4.50473369	      0.88759992	      0.01549154	     26.27407901	     -9.94067817	      0.00000000	     -0.55458629	     -1.58035726	     16.21595933	      2.80167508	      0.04889845	     21.34357634	    -13.72550864	      0.00000000	      0.15175769	      0.53631256	     -1.39531267	      0.28182921	      0.71329571	     -1.48251972	      0.24932271	      1.30399036	     -1.48251972	      0.17344387	      1.30399036	     -1.22089859	      0.14092219	      1.09364857	     -1.13369155	      0.08671435	      0.83074816	     -1.04648451	      1.08399003	      6.06687495	     -7.76031050	      0.00000000	      0.00000000	     27.17881365	      0.86756992	      7.86838398	     19.51374110	    -10.39950676	     92.70067679	     37.90997817	     11.61851839	      7.39649754	      1.91751425	      9.02753041	     -8.06237135	     60.27870951	     40.18803889	     55.90313966	      6.91880354	     -4.26035180
      0.84745763	      2.82366013	     -3.10248825	     97.44657758	      0.16326817	      1.02658020	      0.06645215	     -3.45368012	      4.34875226	     -4.66200619	      0.95434814	      0.01665652	     26.24153980	     -9.41310066	      0.00000000	     -0.47033072	     -1.40913137	     16.16805905	      2.77920969	      0.04850636	     21.17863006	    -14.02444055	      0.00000000	      0.16515909	      0.51924208	     -1.30241261	      0.30671695	      0.69059197	     -1.38381340	      0.27133987	      1.26248520	     -1.38381340	      0.18876033	      1.26248520	     -1.13961103	      0.15336673	      1.05883845	     -1.05821024	      0.09437190	      0.80430598	     -0.97680946	      1.17971487	      5.87377027	     -7.24362820	      0.00000000	      0.00000000	     27.21761766	      0.81017068	      7.39609778	     19.60792740	    -10.49915988	     92.86091075	     38.04777618	     11.72854069	      7.73010542	      1.79429401	      9.46237437	     -8.14376749	     61.82839199	     39.89621308	     55.29752720	      6.98851663	     -4.55462705
      0.86440678	      2.71851975	     -3.24032696	     97.11185911	      0.16341402	      1.02687080	      0.06661659	     -3.26125199	      4.16367976	     -4.81644113	      1.02745930	      0.01793255	     26.19855935	     -8.73423731	      0.00000000	     -0.33793274	     -1.25341702	     15.35616242	      2.83433964	      0.04946856	     21.34241482	    -13.37427532	      0.00000000	      0.17829153	      0.50770675	     -1.18756132	      0.33110519	      0.67524997	     -1.26178391	      0.29291515	      1.23443818	     -1.26178391	      0.20376939	      1.23443818	     -1.03911616	      0.16556151	      1.03531560	     -0.96489358	      0.10187578	      0.78643775	     -0.89067099	      1.27351855	      5.74328026	     -6.60485982	      0.00000000	      0.00000000	     27.28623945	      0.61108839	      6.96286748	     19.83327168	    -10.62304340	     93.61161518	     38.21422736	     10.28899011	      8.10062633	      1.78605340	     10.22273127	     -8.15767628	     64.28715859	     39.41194667	     54.68432806	      6.85725967	     -5.06933580
      0.88135593	      2.60959679	     -3.36401452	     96.88793716	      0.16346523	      1.02707939	      0.06671015	     -3.07950262	      3.98423005	     -6.04224082	      1.14136311	      0.01992054	     26.55536691	     -6.78368957	      0.00000000	     -0.26721813	     -1.09696724	     15.43616765	      2.77034658	      0.04835167	     21.09586420	    -13.87852217	      0.00000000	      0.19182089	      0.49480350	     -1.09623642	      0.35623057	      0.65808866	     -1.16475119	      0.31514253	      1.20306523	     -1.16475119	      0.21923209	      1.20306523	     -0.95920686	      0.17812487	      1.00900330	     -0.89069209	      0.10960645	      0.76645062	     -0.82217731	      1.37015741	      5.59731617	     -6.09693808	      0.00000000	      0.00000000	     27.32544944	      0.48938388	      6.58313296	     20.00719020	    -10.68813416	     94.31716819	     38.18589667	     10.10451279	      8.47706448	      1.62643555	     11.18121294	     -8.17838442	     67.43246640	     38.87720424	     53.49604699	      6.78412523	     -5.74651911
      0.89830508	      2.52988328	     -3.49203397	     96.69743563	      0.16350134	      1.02721804	      0.06688812	     -2.90254052	      3.84211687	     -6.59724033	      1.23174075	      0.02149793	     26.66415607	     -5.84692423	      0.00000000	     -0.16539396	     -0.97800120	     15.41701785	      2.73359915	      0.04771031	     20.84759131	    -14.16780746	      0.00000000	      0.20391862	      0.48684628	     -1.03807499	      0.37869728	      0.64750555	     -1.10295468	      0.33501791	      1.18371804	     -1.10295468	      0.23305860	      1.18371804	     -0.90831562	      0.18935883	      0.99277693	     -0.84343593	      0.11651910	      0.75412489	     -0.77855624	      1.45657034	      5.50730248	     -5.77346168	      0.00000000	      0.00000000	     27.37617425	      0.49005459	      6.43869224	     20.23908693	    -10.68332309	     95.20396241	     38.13349976	      9.93040469	      8.70445624	      1.66820945	     12.05210412	     -8.14650513	     70.25067674	     38.36483520	     52.25473561	      6.88636431	     -6.16984579
      0.91525424	      2.43433967	     -3.62737003	     96.57003728	      0.16344905	      1.02726596	      0.06709522	     -2.72976155	      3.70143620	     -6.54320537	      1.31530467	      0.02295640	     26.55681297	     -6.00085069	      0.00000000	      0.01770733	     -0.84274921	     14.53169092	      2.84033615	      0.04957322	     21.00043690	    -13.21805374	      0.00000000	      0.21658597	      0.47599541	     -1.00746008	      0.40222181	      0.63307390	     -1.07042633	      0.35582910	      1.15733525	     -1.07042633	      0.24753611	      1.15733525	     -0.88152757	      0.20112174	      0.97064985	     -0.81856131	      0.12375723	      0.73731689	     -0.75559506	      1.54705195	      5.38455530	     -5.60319072	      0.00000000	      0.00000000	     27.42027164	      0.50818309	      6.26608588	     20.48425963	    -10.63572703	     96.13282682	     38.04583535	     10.36373121	      8.89275939	      1.61044434	     12.91853736	     -8.08211888	     73.06784585	     37.70598509	     51.63244783	      7.10099416	     -7.11022538
      0.93220339	      2.36662325	     -3.67018700	     96.35881531	      0.16348178	      1.02739783	      0.06726583	     -2.63649667	      3.58244160	     -7.24943224	      1.45185353	      0.02533962	     26.74157426	     -4.99372623	      0.00000000	     -0.01734113	     -0.74329503	     14.72811582	      2.71861460	      0.04744878	     20.57023352	    -13.89019377	      0.00000000	      0.21716966	      0.47406395	     -0.98564108	      0.40330577	      0.63050506	     -1.04724365	      0.35678803	      1.15263909	     -1.04724365	      0.24820320	      1.15263909	     -0.86243595	      0.20166374	      0.96671121	     -0.80083338	      0.12409074	      0.73432506	     -0.73923081	      1.55122113	      5.36270624	     -5.48184001	      0.00000000	      0.00000000	     27.42408927	      0.58249163	      6.53798256	     20.85289496	    -10.56031718	     97.38551046	     38.06229379	     10.28217250	      8.67186874	      1.59302625	     13.52556750	     -8.05655311	     75.28676560	     37.49213082	     49.02625831	      6.99200981	     -6.88533287
      0.94915254	      2.28429837	     -3.70916579	     95.98512383	      0.16370099	      1.02752233	      0.06761047	     -2.49413137	      3.42740572	     -7.84256465	      1.67187168	      0.02917967	     26.99911837	     -4.01771196	      0.00000000	      0.07606943	     -0.62854433	     13.01014017	      2.88959748	      0.05043299	     21.02822395	    -12.11194086	      0.00000000	      0.21404932	      0.46818066	     -0.92074978	      0.39751099	      0.62268028	     -0.97829664	      0.35166162	      1.13833445	     -0.97829664	      0.24463697	      1.13833445	     -0.80565606	      0.19876620	      0.95471400	     -0.74810920	      0.12230778	      0.72521184	     -0.69056233	      1.52893287	      5.29615325	     -5.12093405	      0.00000000	      0.00000000	     27.42335542	      0.58257719	      6.44421769	     20.96204264	    -10.55166197	     97.72964950	     38.13163989	     10.47497528	      8.21496456	      1.79694868	     13.91875584	     -7.95405353	     76.57993111	     37.08885498	     49.08092200	      6.81528832	     -7.35070222
      0.96610169	      2.22469382	     -3.65485348	     95.96893380	      0.16367463	      1.02766646	      0.06778587	     -2.61675203	      3.42610936	     -5.43132003	      1.54833272	      0.02702350	     26.18133621	     -7.68926862	      0.00000000	     -0.05829398	     -0.56156334	     13.81603877	      2.74690768	      0.04794258	     20.39336316	    -13.26459237	      0.00000000	      0.20457907	      0.45819951	     -0.90985010	      0.37992379	      0.60940535	     -0.96671573	      0.33610295	      1.11406629	     -0.96671573	      0.23381342	      1.11406629	     -0.79611884	      0.18997212	      0.93436044	     -0.73925321	      0.11689648	      0.70975104	     -0.68238758	      1.46128783	      5.18324450	     -5.06031330	      0.00000000	      0.00000000	     27.39257365	      0.64737216	      6.22823787	     20.83012935	    -10.47184435	     97.23030498	     37.89499251	     13.71824293	      7.71215483	      1.58906088	     14.14997892	     -7.98643677	     77.45210833	     36.90803654	     48.36261425	      7.02370108	     -7.49922314
